<svg id="Layer_1" data-name="Layer 1" xmlns="http://www.w3.org/2000/svg" xmlns:xlink="http://www.w3.org/1999/xlink" viewBox="0 0 324.22 269"><defs><style>.cls-1{fill-rule:evenodd;fill:url(#linear-gradient);}</style><linearGradient id="linear-gradient" x1="117.89" y1="144.5" x2="442.11" y2="144.5" gradientUnits="userSpaceOnUse"><stop offset="0" stop-color="#68c6f1"/><stop offset="1" stop-color="#2289c5"/></linearGradient></defs><path class="cls-1" d="M181.62,205A63.74,63.74,0,0,1,166.9,79.29c-.16-1.85-.25-3.7-.25-5.56A63.74,63.74,0,0,1,286.41,43.32a63.77,63.77,0,0,1,88.28,34.37c1.23-.07,2.46-.11,3.69-.11a63.73,63.73,0,1,1,0,127.46H367.14v-7.39a18,18,0,0,0-18-18,3.18,3.18,0,0,1-2.25-5.45,18,18,0,0,0,0-25.5l-10.47-10.47a18.05,18.05,0,0,0-25.5,0,3.18,3.18,0,0,1-5.45-2.25,18,18,0,0,0-18-18H272.6a18,18,0,0,0-18,18,3.18,3.18,0,0,1-5.45,2.25,18.06,18.06,0,0,0-25.51,0l-10.45,10.47a18,18,0,0,0,0,25.5,3.19,3.19,0,0,1-2.26,5.45,18,18,0,0,0-18,18V205ZM349.1,217.3a4.87,4.87,0,0,0,4.86-4.86V197.65a4.85,4.85,0,0,0-4.86-4.86c-14.57,0-21.87-17.64-11.57-27.94a4.88,4.88,0,0,0,0-6.88l-10.46-10.45a4.86,4.86,0,0,0-6.88,0c-10.29,10.3-27.94,3-27.94-11.58a4.87,4.87,0,0,0-4.85-4.86H272.6a4.87,4.87,0,0,0-4.85,4.86c0,14.57-17.65,21.88-27.95,11.58a4.85,4.85,0,0,0-6.87,0L222.47,158a4.88,4.88,0,0,0,0,6.88c10.3,10.3,3,27.94-11.57,27.94a4.85,4.85,0,0,0-4.86,4.86v14.79a4.89,4.89,0,0,0,1.42,3.43,4.83,4.83,0,0,0,3.44,1.43c14.56,0,21.87,17.64,11.57,27.94a4.87,4.87,0,0,0,0,6.87l10.46,10.46a4.87,4.87,0,0,0,6.87,0c10.32-10.31,27.95-3,27.95,11.57A4.85,4.85,0,0,0,272.6,279h14.8a4.85,4.85,0,0,0,4.85-4.86c0-14.56,17.65-21.87,27.94-11.57a4.88,4.88,0,0,0,6.88,0l10.46-10.46a4.87,4.87,0,0,0,0-6.87c-10.3-10.3-3-27.94,11.57-27.94ZM310.17,205A30.17,30.17,0,1,0,280,235.21,30.16,30.16,0,0,0,310.17,205Zm0,0" transform="translate(-117.89 -10)"/></svg>